<?xml version="1.0" encoding="utf-8"?>
<svg viewBox="19.579 159.268 450 165.696" xmlns="http://www.w3.org/2000/svg">
  <defs>
    <clipPath id="clipPath22" clipPathUnits="userSpaceOnUse">
      <path id="path20" d="M 0,3486.61 H 3968.5 V 0 H 0 Z"/>
    </clipPath>
  </defs>
  <g transform="matrix(0.11594, 0, 0, -0.11594, 13.939478, 438.999847)" id="g10">
    <g transform="translate(1044.1658,1240.037)" id="g12">
      <path id="path14" style="fill:#1c4f49;fill-opacity:1;fill-rule:nonzero;stroke:none" d="M 0,0 175.196,517.665 H 34.027 L -75.103,164.202 h -2 L -186.219,517.665 H -335.397 L -158.235,0 Z"/>
    </g>
    <g id="g16">
      <g clip-path="url(#clipPath22)" id="g18">
        <g transform="translate(1546.7581,1554.4728)" id="g24">
          <path id="path26" style="fill:#1c4f49;fill-opacity:1;fill-rule:nonzero;stroke:none" d="m 0,0 h -231.212 c 0.603,9.918 2.673,21.344 5.966,33.964 4,12.711 10.418,24.72 19.003,36.075 9.37,11.336 21.35,20.65 36.069,28.061 15.322,8.008 34.325,12.002 57.03,12.002 34.707,0 60.413,-9.335 77.069,-28.061 C -18.656,63.372 -6.674,36.02 0,0 m -231.212,-90.154 h 373.417 c 2.709,40.048 -0.736,78.416 -10.03,115.096 -9.369,36.804 -24.698,69.449 -46.042,98.176 -20.663,28.755 -47.39,51.328 -80.083,68.074 -32.665,17.371 -71.102,26.026 -115.152,26.026 -39.381,0 -75.415,-7.03 -108.129,-20.976 -32.033,-14.072 -59.726,-33.422 -83.118,-58.128 -23.365,-23.963 -41.375,-52.753 -54.072,-86.147 -12.655,-33.311 -19.004,-69.345 -19.004,-108.074 0,-40.09 5.974,-76.804 18.004,-110.13 12.731,-33.367 30.38,-62.093 53.106,-86.139 22.719,-23.99 50.362,-42.647 83.028,-56.052 32.763,-12.683 69.47,-18.989 110.185,-18.989 58.747,0 108.797,13.28 150.193,39.979 41.34,26.782 72.06,71.095 92.113,133.175 H 8.043 c -4.674,-15.988 -17.391,-31.352 -38.09,-46.007 -20.628,-14.031 -45.361,-21.06 -74.061,-21.06 -40.041,0 -70.768,10.377 -92.064,31.006 -21.365,20.726 -33.075,54.12 -35.04,100.17"/>
        </g>
        <g transform="translate(1702.9447,1757.6875)" id="g28">
          <path id="path30" style="fill:#1c4f49;fill-opacity:1;fill-rule:nonzero;stroke:none" d="m 0,0 v -517.664 h 142.233 v 233.324 c 0,23.365 2.326,45.036 6.952,65.074 4.724,20.038 12.37,37.402 23.011,52.071 11.412,15.35 26.047,27.359 44.14,35.985 17.975,8.759 40.076,13.052 66.045,13.052 8.613,0 17.663,-0.681 27.033,-2.015 9.328,-0.639 17.329,-1.667 24.039,-3.015 V 8.974 c -11.391,3.389 -21.706,5.022 -31.075,5.022 -18.017,0 -35.305,-2.668 -52.065,-8.009 -16.655,-5.39 -32.352,-12.96 -47.077,-23.003 -14.641,-9.391 -27.643,-21.088 -39.027,-35.021 -11.294,-13.376 -20.303,-28.088 -27.026,-44.132 h -1.973 l 0,96.169 z"/>
        </g>
        <g transform="translate(2392.875,1554.4728)" id="g32">
          <path id="path34" style="fill:#1c4f49;fill-opacity:1;fill-rule:nonzero;stroke:none" d="m 0,0 h -231.318 c 0.612,9.918 2.667,21.344 5.974,33.964 4.008,12.711 10.377,24.72 19.031,36.075 9.321,11.336 21.365,20.65 36.034,28.061 15.419,8.008 34.381,12.002 57.107,12.002 34.658,0 60.371,-9.335 77.103,-28.061 C -18.725,63.372 -6.73,36.02 0,0 m -231.318,-90.154 h 373.412 c 2.694,40.048 -0.598,78.416 -10.002,115.096 -9.335,36.804 -24.713,69.449 -45.994,98.176 -20.754,28.755 -47.48,51.328 -80.146,68.074 -32.679,17.371 -71.137,26.026 -115.151,26.026 -39.396,0 -75.382,-7.03 -108.158,-20.976 -32.019,-14.072 -59.684,-33.422 -83.111,-58.128 -23.31,-23.963 -41.34,-52.753 -54.065,-86.147 -12.634,-33.311 -18.975,-69.345 -18.975,-108.074 0,-40.09 6.001,-76.804 18.058,-110.13 12.635,-33.367 30.297,-62.093 53.037,-86.139 22.684,-23.99 50.37,-42.647 83.111,-56.052 32.694,-12.683 69.339,-18.989 110.103,-18.989 58.746,0 108.782,13.28 150.185,39.979 41.382,26.782 72.144,71.095 92.099,133.175 H 7.981 c -4.703,-15.988 -17.371,-31.352 -38.083,-46.007 -20.684,-14.031 -45.328,-21.06 -74.117,-21.06 -40.049,0 -70.714,10.377 -92.065,31.006 -21.364,20.726 -33.089,54.12 -35.034,100.17"/>
        </g>
        <g transform="translate(2549.0125,1757.6875)" id="g36">
          <path id="path38" style="fill:#1c4f49;fill-opacity:1;fill-rule:nonzero;stroke:none" d="m 0,0 v -517.664 h 142.163 v 271.359 c 0,52.717 8.738,90.438 25.998,113.116 17.357,23.365 45.41,35.09 84.16,35.09 34.033,0 57.718,-10.683 71.096,-32.117 13.335,-20.594 20.044,-52.329 20.044,-95.1 v -292.348 h 142.108 v 318.436 c 0,32.033 -2.973,61.066 -8.974,87.042 -5.306,26.699 -15.065,49.12 -29.046,67.095 -14.003,18.684 -33.388,33.075 -58.066,43.084 -24.046,10.655 -55.058,16.003 -93.127,16.003 -30.061,0 -59.35,-6.995 -88.126,-20.969 -28.679,-13.391 -52.037,-35.131 -70.109,-65.15 h -2.973 V 0 Z"/>
        </g>
        <g transform="translate(3431.1355,1554.4728)" id="g40">
          <path id="path42" style="fill:#1c4f49;fill-opacity:1;fill-rule:nonzero;stroke:none" d="m 0,0 h -231.325 c 0.639,9.918 2.689,21.344 5.974,33.964 4.021,12.711 10.377,24.72 19.093,36.075 9.266,11.336 21.296,20.65 36.013,28.061 15.385,8.008 34.374,12.002 57.128,12.002 34.589,0 60.358,-9.335 77.027,-28.061 C -18.67,63.372 -6.724,36.02 0,0 m -231.325,-90.154 h 373.439 c 2.653,40.048 -0.639,78.416 -10.001,115.096 -9.356,36.804 -24.748,69.449 -46.036,98.176 -20.733,28.755 -47.404,51.328 -80.132,68.074 -32.679,17.371 -71.095,26.026 -115.089,26.026 -39.465,0 -75.402,-7.03 -108.15,-20.976 -32.027,-14.072 -59.74,-33.422 -83.091,-58.128 -23.407,-23.963 -41.41,-52.753 -54.127,-86.147 -12.648,-33.311 -18.99,-69.345 -18.99,-108.074 0,-40.09 6.036,-76.804 18.08,-110.13 12.613,-33.367 30.283,-62.093 53.009,-86.139 22.698,-23.99 50.446,-42.647 83.125,-56.052 32.673,-12.683 69.36,-18.989 110.144,-18.989 58.67,0 108.755,13.28 150.144,39.979 41.403,26.782 72.116,71.095 92.147,133.175 H 8.001 c -4.737,-15.988 -17.378,-31.352 -38.11,-46.007 -20.706,-14.031 -45.314,-21.06 -74.069,-21.06 -40.055,0 -70.713,10.377 -92.092,31.006 -21.378,20.726 -33.103,54.12 -35.055,100.17"/>
        </g>
        <path id="path44" style="fill:#1c4f49;fill-opacity:1;fill-rule:nonzero;stroke:none" d="m 3581.223,1240.037 h 142.24 v 714.869 h -142.24 z"/>
        <g transform="translate(3831.2866,1880.7891)" id="g46">
          <path id="path48" style="fill:#1c4f49;fill-opacity:1;fill-rule:nonzero;stroke:none" d="m 0,0 v 24.101 h 15.392 c 2.021,0 4.139,-0.132 6.328,-0.389 2.34,-0.285 4.445,-0.896 6.16,-1.799 1.889,-0.712 3.389,-1.834 4.605,-3.306 1.153,-1.424 1.757,-3.459 1.757,-5.869 C 34.242,7.133 32.534,3.653 29.22,2.201 25.796,0.729 21.49,0 16.198,0 Z M -18.197,38.399 V -53.593 H 0 v 39.382 H 11.447 L 33.77,-53.593 H 52.815 L 28.29,-13.392 c 3.368,0.247 6.48,0.966 9.398,1.973 2.916,1.014 5.507,2.529 7.75,4.39 2.168,1.872 3.87,4.292 5.064,7.206 1.229,3.115 1.91,6.74 1.91,10.981 0,9.977 -3.104,16.971 -9.418,21.059 -6.119,4.105 -14.961,6.182 -26.595,6.182 z M -47.369,-7.738 c 0,9.38 1.618,17.972 4.8,25.783 3.25,7.793 7.605,14.62 13.155,20.354 5.542,5.668 12.064,10.113 19.579,13.37 7.543,3.177 15.663,4.824 24.352,4.824 8.439,0 16.42,-1.647 23.92,-4.824 7.543,-3.257 14.107,-7.702 19.657,-13.37 5.598,-5.734 10.029,-12.561 13.189,-20.354 3.425,-7.811 5.078,-16.403 5.078,-25.783 0,-9.349 -1.653,-17.895 -5.078,-25.841 -3.16,-7.921 -7.591,-14.749 -13.189,-20.611 -5.55,-5.696 -12.114,-10.162 -19.657,-13.377 -7.5,-3.14 -15.481,-4.852 -23.92,-4.852 -8.689,0 -16.809,1.712 -24.352,4.852 -7.515,3.215 -14.037,7.681 -19.579,13.377 -5.55,5.862 -9.905,12.69 -13.155,20.611 -3.182,7.946 -4.8,16.492 -4.8,25.841 m -22.386,0 c 0,-12.519 2.313,-23.792 6.793,-33.985 4.73,-10.001 10.925,-18.683 18.635,-25.844 7.793,-7.175 16.725,-12.6 26.782,-16.43 10.322,-3.8 20.928,-5.672 32.062,-5.672 11.057,0 21.67,1.872 31.742,5.672 10.285,3.83 19.238,9.255 26.962,16.43 7.8,7.161 13.947,15.843 18.455,25.844 4.688,10.193 6.994,21.466 6.994,33.985 0,12.516 -2.306,23.747 -6.994,33.86 -4.508,10.064 -10.655,18.594 -18.455,25.647 -7.724,7.119 -16.677,12.637 -26.962,16.423 -10.072,3.99 -20.685,5.903 -31.742,5.903 -11.134,0 -21.74,-1.913 -32.062,-5.903 -10.057,-3.786 -18.989,-9.304 -26.782,-16.423 -7.71,-7.053 -13.905,-15.583 -18.635,-25.647 -4.48,-10.113 -6.793,-21.344 -6.793,-33.86"/>
        </g>
        <g transform="translate(406.8839,1729.2383)" id="g50">
          <path id="path52" style="fill:#1c4f49;fill-opacity:1;fill-rule:nonzero;stroke:none" d="m 0,0 c 0,377.519 306.038,683.495 683.505,683.495 42.716,0 84.424,-3.889 124.959,-11.3 v -9.366 c -40.368,7.893 -82.07,11.97 -124.764,11.97 -359.089,0 -650.25,-291.202 -650.25,-650.316 0,-93.161 19.566,-181.746 54.822,-261.87 94.301,-236.304 325.326,-403.278 595.233,-403.278 216.954,0 408.653,107.769 524.576,272.631 H 1259.7 C 1138.249,-557.859 925.588,-683.575 683.505,-683.575 306.038,-683.575 0,-377.564 0,0"/>
        </g>
        <g transform="translate(1240.4147,2096.843)" id="g54">
          <path id="path56" style="fill:#6fc848;fill-opacity:1;fill-rule:nonzero;stroke:none" d="m 0,0 c -93.794,-163.372 -235.631,-234.273 -417.683,-283.788 -38.839,-12.078 -195.512,-25.491 -247.708,-104.472 0,0 611.798,-127.189 665.391,388.26"/>
        </g>
        <g transform="translate(496.0518,1759.4799)" id="g58">
          <path id="path60" style="fill:#6fc848;fill-opacity:1;fill-rule:nonzero;stroke:none" d="M 0,0 C 44.188,99.117 270.435,99.117 374.841,132.488 578.328,202.153 684.095,263.715 788.454,456.484 544.87,231.599 33.492,530.128 0,0"/>
        </g>
        <g transform="translate(1268.5376,2167.7854)" id="g62">
          <path id="path64" style="fill:#1c4f49;fill-opacity:1;fill-rule:nonzero;stroke:none" d="m 0,0 c -223.601,-374.828 -601.151,-294.477 -710.899,-369.494 -54.906,-20.086 -83.014,-83.027 -88.348,-125.882 -40.195,-182.052 131.14,-432.351 270.414,-495.258 -148.595,93.662 -435.095,530.098 -21.462,630.534 29.504,8.047 57.579,14.711 88.417,22.741 C -241.02,-295.818 -101.788,-180.767 0,0"/>
        </g>
        <g transform="translate(84.0648,1911.9609)" id="g66">
          <path id="path68" style="fill:#6fc848;fill-opacity:1;fill-rule:nonzero;stroke:none" d="m 0,0 c 58.51,-31.325 114.249,-25.977 177.891,-6.814 13.836,3.647 63.171,28.953 93.6,15.051 C 271.491,8.237 112.283,-144.091 0,0"/>
        </g>
        <g transform="translate(369.6068,1950.1932)" id="g70">
          <path id="path72" style="fill:#6fc848;fill-opacity:1;fill-rule:nonzero;stroke:none" d="M 0,0 C -31.679,21.35 -99.385,-20.959 -136.836,-30.446 -210.619,-47.675 -253.703,-49.019 -320.965,-10.832 -206.174,-32.597 -109.026,152.216 0,0"/>
        </g>
        <g transform="translate(62.4148,1927.9288)" id="g74">
          <path id="path76" style="fill:#1c4f49;fill-opacity:1;fill-rule:nonzero;stroke:none" d="m 0,0 c 136.85,-70.297 234.735,24.233 281.541,22.351 20.17,4.233 40.32,-9.314 49.912,-21.122 46.007,-46.956 41.604,-153.786 11.717,-198.572 26.928,55.746 31.061,239.774 -111.394,192.477 -10.356,-3.143 -19.969,-6.379 -30.665,-9.751 C 127.348,-43.414 64.226,-35.072 0,0"/>
        </g>
      </g>
    </g>
    <text id="text80" style="font-variant: normal; font-weight: bold; font-stretch: normal; font-size: 180px; font-family: Montserrat; writing-mode: lr-tb; fill: rgb(111, 200, 72); fill-opacity: 1; fill-rule: nonzero; stroke: none; white-space: pre;" transform="matrix(1,0,0,-1,2177.3081,1030.8271)"><tspan id="tspan78" y="0" x="0 88.379997 194.75999 257.22 317.88 421.73999 484.20001 527.94 625.67999 732.06 775.79999 894.59998 1011.06 1108.8 1215.1801 1332.36 1379.34 1426.3199 1473.3">şeffaf ve güvenilir</tspan></text>
  </g>
</svg>